<?xml version="1.0" encoding="UTF-8"?>
<svg width="1440px" height="320px" viewBox="0 0 1440 320" version="1.1" xmlns="http://www.w3.org/2000/svg" xmlns:xlink="http://www.w3.org/1999/xlink">
    <g stroke="none" stroke-width="1" fill="none" fill-rule="evenodd">
        <path d="M0,192L48,197.3C96,203,192,213,288,229.3C384,245,480,267,576,250.7C672,235,768,181,864,181.3C960,181,1056,235,1152,234.7C1248,235,1344,181,1392,154.7L1440,128L1440,320L1392,320C1344,320,1248,320,1152,320C1056,320,960,320,864,320C768,320,672,320,576,320C480,320,384,320,288,320C192,320,96,320,48,320L0,320Z" fill="#4f46e5" fill-opacity="0.3"></path>
        <path d="M0,224L48,213.3C96,203,192,181,288,154.7C384,128,480,96,576,122.7C672,149,768,235,864,261.3C960,288,1056,256,1152,250.7C1248,245,1344,267,1392,277.3L1440,288L1440,320L1392,320C1344,320,1248,320,1152,320C1056,320,960,320,864,320C768,320,672,320,576,320C480,320,384,320,288,320C192,320,96,320,48,320L0,320Z" fill="#4f46e5" fill-opacity="0.2"></path>
        <path d="M0,288L48,282.7C96,277,192,267,288,234.7C384,203,480,149,576,138.7C672,128,768,160,864,181.3C960,203,1056,213,1152,202.7C1248,192,1344,160,1392,144L1440,128L1440,320L1392,320C1344,320,1248,320,1152,320C1056,320,960,320,864,320C768,320,672,320,576,320C480,320,384,320,288,320C192,320,96,320,48,320L0,320Z" fill="#4f46e5" fill-opacity="0.1"></path>
    </g>
</svg>
